# xmcd
#
# Track frame offsets: 
#        150
#        18621
#        39193
#        67811
#        92584
#        113599
#        127808
#        145584
#        165977
#        185570
#        201140
#        220848
#
# Disc length: 3171 seconds
#
# Revision: 3
# Processed by: cddbd v1.5.2PL0 Copyright (c) Steve Scherf et al.
# Submitted via: ExactAudioCopy v1.3
#
DISCID=930c610c
DTITLE=John Micheal Talbot - The Beautiful City
DYEAR=2006
DGENRE=Christian
TTITLE0=The Beautiful City
TTITLE1=Get Ready
TTITLE2=He Is Risen
TTITLE3=Heal Me
TTITLE4=Holy Man
TTITLE5=Love One Another
TTITLE6=A God Thing
TTITLE7=Like a Lion
TTITLE8=St. Paul´s Blues
TTITLE9=He´s Coming
TTITLE10=The God of Time
TTITLE11=There´s Room Inside
EXTD=www.gerth.de, Art.-Nr. 104311
EXTT0=
EXTT1=
EXTT2=
EXTT3=
EXTT4=
EXTT5=
EXTT6=
EXTT7=
EXTT8=
EXTT9=
EXTT10=
EXTT11=
PLAYORDER=
